<svg xmlns="http://www.w3.org/2000/svg" width="24" height="24" viewBox="0 0 24 24">
  <path d="M15.707 14.167L14.587 13.047L17.13 10.504L12.715 10.504L12.158 9.156L17.13 4.183L10.646 4.183L9.533 6.106L8.16 5.322L9.501 2.993L10.185 2.601L19.04 2.601L19.597 3.949L14.625 8.922L19.04 8.922L19.597 10.27L15.707 14.167ZM7.503 21.399L7.401 21.317L7.199 20.304L11.342 13.035L5.093 13.035L4.403 11.845L5.858 9.32L7.231 10.105L6.459 11.453L12.702 11.453L13.385 12.636L11.254 16.382L12.772 14.863L13.885 15.983L8.54 21.329L7.503 21.399Z" fill="currentColor"/>
</svg>
