<svg width="1800" height="201" viewBox="0 0 1800 201" fill="none" xmlns="http://www.w3.org/2000/svg">
<g clip-path="url(#clip0_12_175)">
<path d="M855.149 38.5H770.93L751.993 153H835.714C863.621 153 880.565 142 884.053 120.5C886.046 108.5 881.561 99 872.093 94.5L869.601 93.5L872.093 92C881.063 87.5 887.043 78.5 889.036 68.5C892.026 49.5 879.568 38.5 855.149 38.5ZM856.644 117.5C856.644 120.5 854.651 128.5 839.202 128.5H784.385L787.375 110.5L792.359 106H843.189C859.136 106 857.641 114.5 857.143 117.5H856.644ZM860.133 73C859.136 78 856.146 83.5 844.684 83.5H791.86L794.85 67L799.834 62.5H848.671C860.133 62.5 861.628 68 860.631 73H860.133Z" fill="#F5F5F5"/>
<path d="M1678.9 78C1682.89 53 1667.94 38.5 1638.54 38.5H1567.28L1548.34 153H1576.74L1581.73 122.5L1587.21 117.5H1625.58C1654.98 117.5 1674.92 102.5 1679.4 78H1678.9ZM1650.5 78C1649 88 1641.03 93.5 1628.57 93.5H1584.72L1589.7 63H1633.55C1646.01 63 1651.99 68.5 1650.5 78Z" fill="#F5F5F5"/>
<path d="M1286.71 38.5H1166.11L1161.63 63H1203.49L1207.48 68L1193.52 152.5H1221.43L1235.38 68L1241.36 63H1282.72L1286.71 38.5Z" fill="#F5F5F5"/>
<path d="M1281.73 152.5H1392.86L1396.84 128.5H1314.12L1317.11 110.5L1322.09 106H1389.87L1393.85 83.5H1321.59L1324.09 67L1329.07 62.5H1407.81L1412.29 38.5H1300.66L1281.73 152.5Z" fill="#F5F5F5"/>
<path d="M1021.59 38.5H900.498L896.512 63H937.874L941.861 68L927.907 152.5H956.312L970.266 68L975.748 63H1017.61L1021.59 38.5Z" fill="#F5F5F5"/>
<path d="M1504.98 38.5H1433.72L1414.78 153H1443.19L1448.17 122.5L1453.65 117.5H1492.03C1521.43 117.5 1541.36 102.5 1545.85 78C1549.83 53 1534.88 38.5 1505.48 38.5H1504.98ZM1517.44 78C1515.95 88 1507.97 93.5 1495.52 93.5H1451.66L1456.64 63H1500.5C1512.96 63 1518.94 68.5 1517.44 78Z" fill="#F5F5F5"/>
<path d="M1074.92 36.5002C1036.05 44.0002 1009.63 76.5002 1016.11 109C1022.59 141.5 1058.97 161.5 1097.84 154C1136.71 146.5 1163.12 114 1156.64 81.5002C1150.17 49.0002 1113.79 29.0002 1074.92 36.5002ZM1093.36 129C1070.93 133.5 1050 122 1046.51 103.5C1043.02 85.0002 1057.97 66.5002 1079.9 62.0002C1102.33 57.5002 1123.26 69.0002 1126.74 87.5002C1130.23 106 1115.28 124.5 1093.36 129Z" fill="#F5F5F5"/>
<path d="M700.665 38.5V38H671.761L595.017 152L594.519 152.5H624.419L637.376 133H684.22L676.744 110V109.5H654.319L652.824 105L677.741 68.5H683.223L710.133 152.5H737.542L700.665 38.5Z" fill="#F5F5F5"/>
<path d="M1763.12 38.5V38H1734.22L1657.47 152L1656.98 152.5H1686.88L1699.83 133H1747.18L1739.2 110V109.5H1716.78L1715.28 105L1740.2 68.5H1745.68L1772.59 152.5H1800L1763.12 38.5Z" fill="#F5F5F5"/>
<path d="M416.113 78C407.641 67.5 401.661 60.5 392.691 49.5L394.186 0H383.223L337.375 56C326.91 61.5 317.94 66.5 306.977 72.5L0 92V103L273.09 117C285.05 128.5 293.023 136.5 303.987 148L302.492 201.5H314.95L363.289 135C372.757 129 381.229 123.5 390.698 117.5L516.777 103V93.5L416.113 78.5V78Z" fill="#F01D2C"/>
</g>
<defs>
<clipPath id="clip0_12_175">
<rect width="1800" height="201" fill="white"/>
</clipPath>
</defs>
</svg>
